<svg width="63" height="71" viewBox="0 0 63 71" fill="none" xmlns="http://www.w3.org/2000/svg">
<path d="M30.2138 48.1295C31.7664 47.7527 33.6192 48.4262 35.1185 48.6758C37.3937 49.055 39.616 48.2946 41.4916 47.0098C39.8716 46.2162 37.9489 45.7518 36.1834 45.5833C34.2414 45.3989 32.6543 46.3145 31.0291 47.2205C30.7436 47.5162 30.4721 47.819 30.2138 48.1295Z" fill="white"/>
<path d="M30.6674 42.9683C30.5674 41.3412 30.1526 39.6943 29.4502 38.2125C28.6841 39.9775 27.5135 41.5563 26.8979 43.3889C26.4486 44.7254 26.3783 46.0805 27.1755 47.3053C27.6723 48.0679 28.2109 48.6433 28.4279 49.4388C28.7843 48.8829 29.1769 48.3516 29.5936 47.8395C30.1057 46.2387 30.7723 44.6924 30.6674 42.9683Z" fill="white"/>
<path d="M37.6629 42.1985C38.8844 41.4444 40.0212 40.5699 40.9381 39.4502C41.7511 38.4566 42.4075 37.3251 42.9492 36.1649C43.2274 35.5699 43.4129 34.9052 43.6745 34.2908C41.335 35.429 38.7602 36.2529 37.4214 38.6597C36.8263 39.7304 36.624 40.7784 36.3941 41.9579C36.3344 42.2663 36.2545 42.5436 36.1335 42.7989C36.6331 42.5729 37.144 42.3746 37.6629 42.1985Z" fill="white"/>
<path d="M58.0062 37.2773C57.5347 37.3395 57.0453 37.2633 56.5357 37.1279C55.0281 36.7273 53.7053 36.3274 52.1102 36.5305C50.4685 36.7403 48.7686 37.4336 47.4762 38.4746C46.6367 39.1509 45.9532 40.0067 45.1979 40.7835C46.2546 40.6518 47.308 40.5146 48.3433 40.3275C51.4543 39.7673 55.3491 39.2157 58.0062 37.2773Z" fill="white"/>
<path d="M40.5169 42.3796C41.6055 43.1809 42.5499 44.7504 43.2833 45.4452C44.6437 46.7336 46.3798 47.7781 48.246 48.1089C49.8552 48.3935 51.522 48.0971 53.1444 47.9151C51.0917 46.3822 49.2992 44.5647 46.8357 43.6538C44.8059 42.9034 42.6473 42.6967 40.5169 42.3796Z" fill="white"/>
<path d="M54.0035 47.892C51.817 46.0781 49.7824 44.0491 47.0474 43.0843C45.2447 42.4487 43.3569 42.243 41.4639 42.0784C44.5387 41.5882 47.6404 41.3189 50.688 40.6234C53.5011 39.982 56.7963 39.2799 58.9964 37.2913C59.1491 37.1534 59.1191 36.9612 59.0139 36.842C59.0335 36.7587 58.9629 36.6516 58.867 36.6759C57.3642 37.0527 56.215 36.2424 54.7927 35.9386C53.4649 35.654 52.0389 35.7082 50.7282 36.0501C49.5293 36.3635 48.3419 36.8988 47.3298 37.6163C46.0782 38.5032 45.3103 39.7982 44.2778 40.8991C42.5764 41.1093 40.8754 41.3319 39.2264 41.7387C39.8852 41.2913 40.5109 40.7968 41.0753 40.2199C41.9114 39.3657 42.5742 38.3629 43.15 37.3175C43.7918 36.154 44.1154 34.8426 44.75 33.6918C44.8838 33.4499 44.6603 33.0244 44.3521 33.2111C42.0701 34.5931 39.2468 35.2006 37.528 37.3839C36.9117 38.1664 36.4624 39.0964 36.1528 40.0401C35.8271 41.0341 35.9698 42.3208 35.2629 43.1386C35.2321 43.1737 35.2187 43.2107 35.2135 43.247C33.3417 44.2248 31.6462 45.541 30.2262 47.1065C30.7613 45.7665 31.2936 44.459 31.2572 42.9529C31.2086 40.9802 30.6731 38.9325 29.7332 37.201C29.5932 36.9432 29.1809 36.9123 29.0739 37.2233C28.3111 39.4476 26.7606 41.3271 26.1098 43.5983C25.8452 44.5228 25.7452 45.5052 26.0106 46.4413C26.403 47.8255 27.7469 48.7234 27.9378 50.1663C27.9409 50.1886 27.9513 50.2046 27.958 50.2243C27.1927 51.5691 26.6056 53.0162 26.2464 54.5339C26.1954 54.7488 26.4945 54.8785 26.5784 54.6585C27.3566 52.6212 28.286 50.7199 29.531 49.0103L29.5316 49.0096C30.6556 48.2879 32.7595 48.8976 33.9828 49.1376C35.0484 49.3469 36.1286 49.5688 37.2192 49.4487C39.0764 49.2444 40.8714 48.2798 42.3846 47.2335C42.5613 47.1113 42.5448 46.7911 42.3627 46.6826C40.5591 45.6068 38.1075 45.053 36.0209 44.934C34.7678 44.8622 33.6582 45.2324 32.6099 45.7797C34.5885 44.1983 36.8997 43.0745 39.3629 42.4821C40.247 42.7459 41.2633 44.3751 41.7511 44.9363C42.6689 45.9916 43.7583 46.9187 44.9814 47.6C46.2309 48.2968 47.6163 48.7573 49.0525 48.8099C50.6776 48.8694 52.2753 48.4565 53.8915 48.3693C54.1439 48.354 54.1613 48.0236 54.0035 47.892ZM27.1756 47.3053C26.3772 46.0806 26.4481 44.7261 26.898 43.389C27.5142 41.557 28.6842 39.9775 29.4503 38.2125C30.1521 39.6938 30.5675 41.3412 30.6675 42.9683C30.773 44.6918 30.1064 46.2394 29.5943 47.8389C29.1776 48.351 28.785 48.8823 28.4286 49.4382C28.2116 48.6427 27.673 48.0686 27.1756 47.3053ZM36.1835 45.5833C37.9484 45.7512 39.8717 46.2162 41.4917 47.0098C39.6161 48.2946 37.3944 49.0544 35.1186 48.6758C33.6193 48.4263 31.7671 47.7521 30.2139 48.1296C30.4722 47.819 30.7437 47.5162 31.0286 47.2212C32.6545 46.3145 34.2409 45.3995 36.1835 45.5833ZM47.4769 38.4753C48.7693 37.4342 50.4698 36.7403 52.1109 36.5311C53.7054 36.3275 55.0281 36.7273 56.5364 37.1285C57.046 37.2639 57.5354 37.3401 58.0069 37.278C55.3498 39.2164 51.4549 39.7679 48.3446 40.3287C47.3093 40.5159 46.2559 40.653 45.1993 40.7847C45.9539 40.0073 46.6374 39.1515 47.4769 38.4753ZM36.3948 41.9573C36.6253 40.7785 36.8269 39.7299 37.422 38.6591C38.7602 36.2529 41.3357 35.4285 43.6751 34.2902C43.413 34.9053 43.2281 35.5693 42.9498 36.1643C42.4081 37.3245 41.7518 38.456 40.9387 39.4496C40.0225 40.5699 38.885 41.4438 37.6635 42.1979C37.1446 42.374 36.6338 42.5723 36.1342 42.797C36.2545 42.5424 36.3344 42.2651 36.3948 41.9573ZM48.2454 48.1083C46.3798 47.7781 44.643 46.733 43.2827 45.4446C42.5499 44.7504 41.6048 43.1803 40.5162 42.379C42.6467 42.6973 44.8053 42.9028 46.8338 43.6533C49.2973 44.5642 51.0898 46.3816 53.1425 47.9146C51.5207 48.0959 49.8539 48.3924 48.2454 48.1083Z" fill="black"/>
<path d="M20.4189 43.0214C21.0261 43.218 21.7491 43.1057 22.2966 42.7793C22.7309 42.5204 23.0722 41.6237 22.2861 41.8141C21.728 41.9492 21.206 42.3739 20.769 42.7257C20.6523 42.8196 20.5312 42.9188 20.411 43.0197C20.4136 43.0214 20.4163 43.0205 20.4189 43.0214Z" fill="white"/>
<path d="M24.956 22.2678C25.3193 21.9124 26.3634 20.4902 25.6676 20.0181C25.0894 19.6259 24.2497 20.9719 24.0128 21.3439C23.7171 21.8063 23.4451 22.3196 23.267 22.8557C23.2626 22.9803 23.2573 23.1049 23.2521 23.2295C23.8891 23.0522 24.4673 22.746 24.956 22.2678Z" fill="white"/>
<path d="M24.1278 10.6446C24.3313 10.2761 25.2386 8.01589 24.4603 8.02905C24.0269 8.03695 23.3688 9.23901 23.1775 9.57769C22.8108 10.2252 22.5984 10.9254 22.3168 11.6045C22.4063 11.9529 22.4879 12.303 22.5598 12.6548C23.1477 12.0371 23.711 11.3957 24.1278 10.6446Z" fill="white"/>
<path d="M21.7421 29.446C21.5096 28.9757 21.2507 28.501 20.9375 28.0807C20.6444 27.6876 19.3906 26.4285 18.7527 26.8988C18.3359 27.2068 18.8694 28.0877 19.0949 28.3527C19.3897 28.7002 19.7775 28.966 20.175 29.1828C20.7304 29.4863 21.3604 29.6285 21.9404 29.8645C21.8754 29.7373 21.8184 29.5995 21.7421 29.446Z" fill="white"/>
<path d="M24.9815 13.87C24.6832 14.1104 24.4568 14.457 24.255 14.7764C23.7952 15.5029 23.5066 16.2847 23.3539 17.1112C24.126 16.2785 25.1789 15.6898 25.2912 14.4131C25.3237 14.0525 25.4237 13.5129 24.9815 13.87Z" fill="white"/>
<path d="M19.8626 10.7183C19.495 10.4551 19.1019 10.2138 18.6886 10.0287C18.4026 9.9006 17.8033 9.77074 17.6007 10.1498C17.4629 10.4069 17.6507 10.8465 17.7963 11.0702C18.6211 12.3354 20.5225 12.4521 21.9246 12.811C21.3332 12.016 20.6795 11.3027 19.8626 10.7183Z" fill="white"/>
<path d="M19.0607 20.7464C17.6489 20.8824 19.6433 22.9127 20.118 23.2321C20.784 23.6805 21.5886 24.0007 22.2273 24.5044C22.0071 23.9884 21.8851 23.3111 21.7298 22.9987C21.2648 22.0616 20.2952 20.627 19.0607 20.7464Z" fill="white"/>
<path d="M25.823 25.9135C25.2237 25.5722 24.2945 26.7128 24.019 27.0708C23.5724 27.6508 23.2373 28.2974 22.9775 28.9757C23.8146 28.9967 24.6569 28.7011 25.2966 28.1597C25.6054 27.8982 25.8686 27.5665 25.9897 27.177C26.0897 26.8585 26.1749 26.1136 25.823 25.9135Z" fill="white"/>
<path d="M19.731 7.07001C19.4897 4.79837 18.8965 2.3337 16.9285 0.999146C16.6144 2.3337 16.8232 3.62614 17.5111 4.86155C18.1332 5.97762 18.9387 6.59708 19.8661 7.27796C19.8608 7.26918 19.8564 7.25953 19.8512 7.25076C19.7889 7.22005 19.7406 7.16301 19.731 7.07001Z" fill="white"/>
<path d="M23.7558 33.8884C24.1059 33.7058 24.3849 33.4549 24.5534 33.0943C24.6341 32.9214 24.8798 32.2923 24.6376 32.1704C24.1489 31.9238 23.2583 32.8355 22.9819 33.1232C22.7143 33.4014 22.4949 33.7225 22.2694 34.0358C22.2519 34.1551 22.2352 34.2753 22.2168 34.3946C22.7266 34.2191 23.2715 34.1402 23.7558 33.8884Z" fill="white"/>
<path d="M18.5474 43.6242C18.4579 43.5259 18.0367 43.0705 17.8814 43.1521C17.8103 43.1899 17.8296 43.4285 17.8463 43.4908C17.9016 43.7023 18.1087 43.8795 18.2666 44.0181C18.4903 44.2129 18.7615 44.3779 18.9975 44.5718C19.0089 44.5393 19.0203 44.5069 19.0317 44.4735C18.9729 44.1559 18.7509 43.8479 18.5474 43.6242Z" fill="white"/>
<path d="M21.2692 39.4854C21.8009 39.4863 22.3466 39.467 22.8362 39.2468C23.3197 39.03 23.9883 38.25 23.4934 37.7113C22.8985 37.0646 21.9404 38.1833 21.3718 39.0028C21.3376 39.1643 21.3043 39.3248 21.2692 39.4854Z" fill="white"/>
<path d="M19.7372 39.1335C19.5117 38.7738 17.8542 36.9312 17.8683 38.2114C17.8832 39.5179 19.3581 39.7127 20.2355 40.3698C20.2425 40.3426 20.2496 40.3163 20.2566 40.2891C20.0285 39.9662 19.9144 39.417 19.7372 39.1335Z" fill="white"/>
<path d="M21.5719 17.2253C21.0384 16.5698 20.0408 15.8495 19.1467 15.9679C17.7805 16.1487 19.9899 17.8149 20.3996 18.0465C21.1016 18.4423 21.8509 18.7371 22.5467 19.1389C22.5458 19.0968 22.5458 19.0547 22.5449 19.0126C22.2861 18.3826 22 17.7517 21.5719 17.2253Z" fill="white"/>
<path d="M21.0664 35.2598C20.9182 34.8947 20.7356 34.5411 20.5303 34.206C20.3426 33.8989 19.2019 32.173 18.6842 32.667C18.1859 33.1417 19.1379 34.3086 19.4292 34.6263C19.8942 35.1316 20.4961 35.58 21.1875 35.7029C21.191 35.68 21.1945 35.6581 21.1989 35.6353C21.148 35.5151 21.1164 35.3826 21.0664 35.2598Z" fill="white"/>
<path d="M24.4059 25.8249C23.8084 26.3197 23.3372 26.9734 22.9783 27.6867C23.0055 27.3314 23.0406 26.9787 23.0643 26.6224C23.1257 25.7169 23.1819 24.8114 23.2249 23.9042C24.2216 23.7182 25.1543 23.0899 25.7799 22.3161C26.3055 21.665 26.9434 20.2339 26.1379 19.5434C25.4184 18.9266 24.505 19.711 24.0742 20.2883C23.7935 20.6639 23.525 21.0964 23.3003 21.5562C23.3188 20.4296 23.3065 19.3039 23.2477 18.179C23.2846 18.1589 23.3205 18.1334 23.3521 18.0957C24.0084 17.3086 24.9332 16.7234 25.4851 15.8547C25.8747 15.2406 26.3424 13.8104 25.7027 13.212C25.1412 12.6864 24.4428 13.4769 24.1243 13.9007C23.6452 14.5386 23.2942 15.2634 23.074 16.0258C23.0634 15.932 23.0573 15.8372 23.0459 15.7433C22.9573 15.0001 22.8529 14.2455 22.7221 13.4936C23.8522 12.6311 24.835 11.3887 25.2868 10.0313C25.5193 9.33113 25.8615 7.61139 24.906 7.24463C24.1321 6.94718 23.4039 8.03079 23.052 8.54935C22.6414 9.15652 22.2606 9.91725 22.0562 10.6867C21.6473 9.36974 21.0857 8.11152 20.2803 6.98842C20.54 4.38687 19.2747 1.29748 16.9004 0.0559291C16.6776 -0.0607676 16.3916 0.0032893 16.3073 0.265638C15.7888 1.87658 15.9256 3.51296 16.7241 5.01598C17.5629 6.59621 18.686 7.41572 20.289 8.08607C20.2961 8.0887 20.3013 8.08783 20.3083 8.09046C20.8488 9.15126 21.2656 10.2638 21.5876 11.4115C21.0155 10.721 20.2627 10.1366 19.5704 9.70316C18.7 9.15828 17.1698 8.57129 16.8206 10.0164C16.231 12.4574 20.2768 13.5463 22.0816 13.591C22.3299 14.9984 22.4659 16.44 22.5194 17.8912C22.2571 17.2727 21.914 16.6962 21.4069 16.2303C20.6927 15.5748 19.352 14.8282 18.3956 15.4187C17.4278 16.0162 18.1025 17.1814 18.7027 17.7666C19.7644 18.8011 21.213 19.3065 22.5484 19.8909C22.5405 21.0684 22.4966 22.2432 22.4308 23.4005C22.3729 23.1654 22.3106 22.9382 22.2255 22.7416C21.9044 22.0046 21.4622 21.2886 20.8524 20.756C20.2145 20.1997 19.0422 19.6654 18.2482 20.2278C17.3286 20.8797 17.9814 22.2037 18.5237 22.8776C19.4458 24.0253 21.0182 24.7562 22.2975 25.4502C22.2562 26.0275 22.2141 26.6005 22.1729 27.162C22.129 27.7552 22.0799 28.3501 22.0272 28.9458C22.0193 28.9283 22.0114 28.909 22.0044 28.8932C21.8351 28.5466 21.6569 28.2053 21.4472 27.8824C21.1384 27.4077 20.7681 26.9804 20.2855 26.6768C19.6959 26.3057 18.5947 25.8714 18.1069 26.6251C17.5655 27.4604 18.3157 28.6142 18.9361 29.1617C19.6406 29.7838 20.8471 30.4506 21.8719 30.5726C21.7315 31.9352 21.5622 33.3005 21.3551 34.6631C21.2682 34.4517 21.1726 34.2446 21.0638 34.0436C20.7865 33.5295 20.4514 33.0258 20.0425 32.6056C19.5073 32.0563 18.4886 31.4956 18.035 32.4503C17.627 33.3084 18.2587 34.3183 18.7983 34.9526C19.3678 35.6239 20.1767 36.3004 21.0884 36.3126C20.8953 37.4147 20.6716 38.5106 20.4189 39.5986C20.2013 38.9835 19.939 38.4097 19.4818 37.8824C18.9913 37.3182 17.9393 36.5794 17.3295 37.4138C16.8083 38.1263 17.2172 39.2336 17.7805 39.7881C18.4236 40.4216 19.3871 40.5286 20.053 41.0832C19.8126 42.001 19.5494 42.9108 19.2572 43.8093C19.1528 43.5944 19.0168 43.3934 18.8825 43.2215C18.6158 42.8836 18.1499 42.4248 17.6699 42.5687C17.0996 42.7406 17.0917 43.5312 17.3435 43.9567C17.5182 44.2515 17.7831 44.4814 18.0534 44.6859C18.2833 44.8596 18.5289 45.0482 18.7825 45.1992C18.4754 46.0459 18.1429 46.8829 17.7805 47.7051C17.6033 48.106 18.278 48.4333 18.4789 48.0394C19.2125 46.6065 19.7731 45.0947 20.2382 43.5505C20.9524 43.919 22.0842 43.5996 22.7011 43.1837C23.2521 42.8117 23.6776 41.8772 23.0231 41.3701C22.4659 40.9375 21.6499 41.4877 21.191 41.8149C21.0015 41.9501 20.8006 42.1019 20.6032 42.2642C20.7953 41.5421 20.9708 40.8164 21.134 40.0899C21.9588 40.1628 22.9011 40.0592 23.5653 39.5451C24.1699 39.0756 24.4963 38.1465 24.0567 37.4559C23.6504 36.8181 22.8458 36.8935 22.3045 37.2954C22.0342 37.4963 21.7982 37.749 21.578 38.0201C21.7771 37.0532 21.9535 36.0845 22.1123 35.115C22.1237 35.1141 22.1325 35.1202 22.1439 35.1185C23.0573 34.9746 24.1567 34.7131 24.8007 34.0007C25.2552 33.4979 25.7966 32.2511 25.1385 31.6965C24.5533 31.2034 23.6539 31.7825 23.1942 32.1826C22.9002 32.438 22.6484 32.7459 22.4142 33.0618C22.5677 31.9334 22.7055 30.8025 22.816 29.668C22.8327 29.6723 22.8458 29.6794 22.8651 29.6802C24.0216 29.732 25.2421 29.2521 26.0212 28.386C26.6398 27.6981 27.0601 26.4127 26.3994 25.602C25.8501 24.929 24.9385 25.3835 24.4059 25.8249ZM24.255 14.7755C24.4568 14.457 24.6832 14.1096 24.9815 13.8691C25.4237 13.5129 25.3237 14.0525 25.2921 14.4123C25.1789 15.6889 24.1269 16.2768 23.3547 17.1103C23.5065 16.2838 23.7952 15.502 24.255 14.7755ZM17.7954 11.0702C17.6498 10.8464 17.462 10.406 17.5998 10.1498C17.8024 9.77072 18.4026 9.90058 18.6877 10.0287C19.101 10.2138 19.4941 10.456 19.8617 10.7183C20.6786 11.3018 21.3323 12.0151 21.9228 12.811C20.5216 12.4521 18.6202 12.3354 17.7954 11.0702ZM20.1179 23.2321C19.6433 22.9127 17.6489 20.8824 19.0607 20.7464C20.2952 20.627 21.2647 22.0616 21.7298 22.9987C21.8851 23.3111 22.007 23.9884 22.2273 24.5043C21.5885 24.0016 20.7839 23.6805 20.1179 23.2321ZM19.0949 28.3536C18.8694 28.0877 18.3359 27.2077 18.7527 26.8997C19.3906 26.4294 20.6444 27.6885 20.9375 28.0816C21.2516 28.5019 21.5095 28.9765 21.742 29.4468C21.8175 29.5995 21.8754 29.7373 21.9395 29.8662C21.3595 29.6302 20.7295 29.489 20.1741 29.1845C19.7775 28.966 19.3897 28.701 19.0949 28.3536ZM22.2861 41.8149C23.0722 41.6245 22.7309 42.5204 22.2966 42.7801C21.7491 43.1065 21.0252 43.2188 20.4189 43.0223C20.4163 43.0214 20.4145 43.0223 20.4119 43.0214C20.5321 42.9196 20.6532 42.8213 20.7699 42.7275C21.2059 42.3739 21.728 41.9501 22.2861 41.8149ZM24.0128 21.3439C24.2506 20.9719 25.0903 19.6259 25.6676 20.0181C26.3634 20.4901 25.3193 21.9133 24.956 22.2678C24.4664 22.746 23.8882 23.0513 23.253 23.2295C23.2582 23.1049 23.2635 22.9803 23.2679 22.8557C23.4451 22.3196 23.718 21.8063 24.0128 21.3439ZM23.1766 9.57769C23.3688 9.239 24.026 8.03694 24.4594 8.02904C25.2377 8.015 24.3304 10.2761 24.1269 10.6446C23.711 11.3957 23.1468 12.0371 22.5589 12.6557C22.4861 12.303 22.4045 11.9537 22.3159 11.6054C22.5975 10.9263 22.8099 10.2252 23.1766 9.57769ZM17.5111 4.86156C16.8232 3.62703 16.6144 2.33371 16.9285 0.999159C18.8975 2.33371 19.4897 4.79838 19.731 7.07002C19.7407 7.16303 19.7889 7.22006 19.8521 7.25165C19.8574 7.26042 19.8617 7.27007 19.867 7.27885C18.9387 6.59709 18.1323 5.97764 17.5111 4.86156ZM20.4005 18.0465C19.9898 17.8149 17.7814 16.1487 19.1475 15.9679C20.0416 15.8495 21.0392 16.5698 21.5727 17.2253C22.0009 17.7517 22.2869 18.3826 22.5466 19.0126C22.5475 19.0547 22.5484 19.0968 22.5484 19.1389C21.8517 18.7371 21.1024 18.4423 20.4005 18.0465ZM19.4301 34.6254C19.1379 34.3078 18.1867 33.1408 18.6851 32.6661C19.2028 32.1721 20.3434 33.898 20.5312 34.2051C20.7357 34.5411 20.919 34.8947 21.0673 35.2589C21.1173 35.3817 21.1489 35.5142 21.1998 35.6335C21.1963 35.6563 21.1919 35.6783 21.1884 35.7011C20.497 35.5791 19.8951 35.1308 19.4301 34.6254ZM17.8682 38.2114C17.8542 36.9321 19.5117 38.7738 19.7372 39.1335C19.9144 39.417 20.0285 39.9662 20.2566 40.2882C20.2496 40.3154 20.2425 40.3418 20.2355 40.369C19.359 39.7126 17.8832 39.5179 17.8682 38.2114ZM18.2675 44.0181C18.1095 43.8795 17.9025 43.7023 17.8472 43.4908C17.8305 43.4276 17.8112 43.1899 17.8823 43.1521C18.0367 43.0705 18.4587 43.5259 18.5482 43.6242C18.7518 43.8488 18.9738 44.1568 19.0335 44.4744C19.0221 44.5069 19.0106 44.5393 18.9992 44.5727C18.7623 44.3779 18.4903 44.2129 18.2675 44.0181ZM23.4934 37.7121C23.9874 38.25 23.3188 39.0309 22.8362 39.2476C22.3466 39.467 21.8008 39.4872 21.2691 39.4863C21.3042 39.3257 21.3376 39.1651 21.3718 39.0037C21.9395 38.1842 22.8985 37.0646 23.4934 37.7121ZM22.9818 33.1232C23.2582 32.8363 24.1488 31.9238 24.6375 32.1704C24.8797 32.2923 24.634 32.9223 24.5533 33.0943C24.3848 33.4549 24.1067 33.7058 23.7557 33.8883C23.2714 34.1402 22.7265 34.2183 22.2159 34.3946C22.2343 34.2753 22.251 34.1551 22.2685 34.0357C22.4949 33.7225 22.7142 33.4014 22.9818 33.1232ZM25.9905 27.1752C25.8686 27.5648 25.6053 27.8973 25.2974 28.1579C24.6568 28.6993 23.8145 28.995 22.9783 28.9739C23.2372 28.2957 23.5732 27.6499 24.0198 27.069C24.2953 26.711 25.2245 25.5704 25.8238 25.9117C26.1748 26.1135 26.0897 26.8585 25.9905 27.1752Z" fill="black"/>
<path d="M27.6354 42.6868C28.1663 39.3079 27.2696 35.206 24.7584 32.7615C21.8164 29.8976 16.5615 29.8309 13.2879 32.1648C13.9152 32.5009 14.54 32.8343 15.1963 33.0519C15.5797 32.9685 15.9473 32.9264 16.272 32.9361C18.9595 33.0124 22.0621 34.6216 23.2922 37.0801C24.3548 39.2044 23.9819 41.7577 22.4227 43.5371C20.6924 45.5121 17.9786 46.1369 15.4534 45.7438C14.6461 46.0307 13.8047 46.2404 13.0378 46.4378C12.3087 46.6256 11.5611 46.7037 10.8337 46.63C12.5149 50.2677 17.174 51.232 20.7582 50.2309C24.3635 49.2219 27.0493 46.4167 27.6354 42.6868Z" fill="white"/>
<path d="M16.4317 44.3565C15.0629 44.0986 13.5116 43.1036 13.0185 41.8594C12.5149 40.5889 13.416 39.3754 14.5707 38.863C13.0852 37.4214 11.14 37.0468 9.32547 38.3146C8.33135 39.0087 7.67416 40.0282 7.54255 41.2426C7.30916 43.3984 8.80165 45.499 11.0057 45.7288C12.3122 45.8648 14.79 45.3629 16.4317 44.3565Z" fill="white"/>
<path d="M12.1217 36.6862C13.3615 36.8423 14.5609 37.4767 15.434 38.6252C18.4207 38.2453 19.9939 42.6851 17.6758 44.5715C17.4854 44.7268 17.2774 44.8655 17.0625 44.9962C17.1853 44.9892 17.309 44.9813 17.4327 44.9699C18.648 44.8628 19.7912 44.4917 20.7801 43.7538C22.3577 42.5763 23.2641 40.6135 22.8174 38.6516C22.3024 36.3913 20.2396 34.9927 18.154 34.3031C15.6428 33.4739 13.2343 34.2478 12.1217 36.6862Z" fill="white"/>
<path d="M35.8779 15.8132C36.7667 13.3064 37.4142 10.7584 37.8047 8.12615C38.0653 6.36517 38.4119 4.57523 38.633 2.78705C38.103 4.12599 37.645 5.50354 37.0905 6.81967C36.1385 9.08165 35.1619 11.334 34.2494 13.6126C32.3857 18.2682 30.7081 23.0379 29.8728 27.9953C30.122 28.4419 30.3212 28.914 30.4449 29.415C32.4156 24.9472 34.2459 20.4153 35.8779 15.8132Z" fill="white"/>
<path d="M16.3237 39.586C14.9251 39.1131 13.1703 40.3108 13.8134 41.8507C14.2802 42.9685 15.7999 43.6678 16.9204 44.0205C17.5232 43.5546 17.9478 43.0062 18.0321 42.378C18.1883 41.2251 17.4021 39.9511 16.3237 39.586Z" fill="white"/>
<path d="M10.8407 31.1356C11.4031 31.2585 11.9296 31.4796 12.4438 31.7314C12.4683 31.6735 12.5052 31.6173 12.5587 31.5647C15.6288 28.5569 21.8102 28.9666 24.9575 31.62C26.028 32.522 26.8659 33.6758 27.4854 34.9577C27.5635 34.8541 27.6854 34.7874 27.853 34.819C28.3444 34.9129 29.2779 32.4675 29.3569 32.1745C29.8061 30.5223 29.4139 28.9465 28.3251 27.6321C26.7361 25.7123 24.2486 24.5822 21.8225 24.2251C19.3859 23.8662 16.8923 24.3742 14.7856 25.6544C13.6432 26.3493 12.6763 27.2741 11.8743 28.341C11.333 29.0614 10.4038 30.1196 10.1484 31.0251C10.381 31.0584 10.6135 31.0865 10.8407 31.1356Z" fill="white"/>
<path d="M23.68 52.9606C23.3124 53.5054 22.8517 53.9863 22.4165 54.3153C22.8666 55.9938 22.9403 57.6662 23.6396 59.3341C24.3416 61.01 25.2435 62.592 26.0078 64.2389C26.5412 62.7148 26.7571 60.8916 26.9791 59.3736C27.3081 57.1257 26.9229 54.8988 26.5053 52.6903C25.6024 52.9483 24.6846 53.0711 23.7905 53.0114C23.7449 53.0097 23.7133 52.9834 23.68 52.9606Z" fill="white"/>
<path d="M32.319 27.2328C31.9365 28.1155 31.5399 28.9912 31.1415 29.866C31.1038 30.0037 31.0705 30.1415 31.0415 30.2784C31.5881 30.3784 32.1085 30.6364 32.5919 30.9996C34.7907 28.9298 36.9088 26.7906 38.6092 24.2794C39.8622 22.429 41.8074 19.3387 41.9513 16.8424C40.0394 18.3937 38.2381 20.3126 36.5403 22.0526C35.1785 23.4503 33.4895 25.2876 32.319 27.2328Z" fill="white"/>
<path d="M28.0145 36.2194C28.8103 38.477 28.9884 40.9943 28.5611 43.2264C28.0109 46.1026 26.336 48.3979 24.0169 49.8676C24.5802 50.6029 24.4425 51.5488 23.9994 52.4174C24.6654 52.2437 25.369 52.2305 26.0341 52.0059C27.08 51.6532 28.0539 51.0451 28.9419 50.4037C30.6388 49.1797 32.1813 47.5925 32.8552 45.5674C33.9458 42.2876 31.4434 37.3556 28.0145 36.2194Z" fill="white"/>
<path d="M30.5827 30.9426C30.4686 31.9911 29.8184 34.4891 28.8015 35.4007C30.3256 36.0351 31.5689 37.5522 32.4481 38.82C33.1 39.7598 33.6282 40.76 33.9318 41.8156C37.259 38.5165 34.1406 32.8422 30.6055 30.9285C30.5993 30.9347 30.5906 30.9382 30.5827 30.9426Z" fill="white"/>
<path d="M7.76451 44.9909C6.48436 43.4475 6.18778 41.1461 7.15207 39.3368C8.08038 37.5952 9.73431 36.6888 11.4137 36.6511C11.3031 35.1103 12.7325 33.9249 14.2407 33.3388C13.7362 33.1142 13.2466 32.8343 12.7219 32.6263C11.5479 32.1613 10.3038 31.8656 9.03764 31.8446C6.33168 31.8007 3.82227 33.1396 2.31486 35.3849C0.879402 37.5223 0.323991 40.7416 2.11568 42.8395C3.54763 44.5154 5.67801 44.9313 7.76451 44.9909Z" fill="white"/>
<path d="M21.7593 53.4001C22.4744 52.9281 23.8292 51.4014 23.1606 50.3537C22.3218 50.7854 21.418 51.1223 20.4625 51.3461C16.5703 52.2586 11.5242 50.8468 10.1151 46.7379C10.0853 46.6501 10.0932 46.5694 10.1186 46.4975C9.70359 46.3904 9.29909 46.2316 8.91478 45.9956C8.77264 45.9087 8.63664 45.8131 8.50679 45.7131C8.49275 45.7183 8.48221 45.728 8.46817 45.7315C6.54048 46.2448 4.30219 45.756 2.62369 44.5996C2.06126 46.9362 3.24314 50.0142 4.96903 51.5014C6.73001 53.0184 9.20346 53.8924 11.4356 54.4425C13.7836 55.0216 16.4641 55.3094 18.827 54.6733C19.8457 54.4004 20.8749 53.9845 21.7593 53.4001Z" fill="white"/>
<path d="M18.312 55.9183C17.5495 56.6475 17.1117 58.2242 16.7581 59.0946C16.2843 60.2624 15.8965 61.4496 15.549 62.6604C14.9181 64.8592 14.2004 67.0387 13.6968 69.2709C14.4417 68.4917 15.0383 67.4441 15.6639 66.6711C16.6002 65.5147 17.603 64.4012 18.4577 63.1816C20.2915 60.5625 20.9416 57.6846 21.7787 54.7005C20.6828 55.3147 19.5167 55.7051 18.312 55.9183Z" fill="white"/>
<path d="M42.0874 15.7044C39.6096 17.6067 37.2414 20.1187 35.1611 22.4579C34.5074 23.1923 33.9064 23.9697 33.3483 24.7761C34.6144 21.7113 35.7972 18.6105 36.8747 15.4781C37.6529 13.2134 38.2145 10.8979 38.5821 8.53153C38.9954 5.87997 39.5824 3.12926 39.6649 0.446992C39.6798 -0.0364664 39.0823 -0.166323 38.8638 0.249574C37.7731 2.32818 37.1116 4.66299 36.2052 6.83022C35.2146 9.1975 34.2038 11.5551 33.286 13.9522C31.6294 18.2779 30.0054 22.7817 29.5131 27.418C28.326 25.7219 26.3483 24.4813 24.475 23.7995C21.3207 22.6518 17.7592 22.8264 14.8014 24.4462C13.3976 25.2148 12.1876 26.2694 11.2172 27.5408C10.4863 28.4972 9.50006 29.6993 9.31142 30.9399C8.33397 30.882 7.34687 30.9575 6.4054 31.2207C3.8021 31.949 1.6647 33.9293 0.641634 36.4186C-0.336689 38.7981 -0.305099 41.6787 1.50063 43.6502C1.69717 43.8652 1.91389 44.0635 2.14114 44.2521C1.11544 46.4738 2.09376 49.8176 3.58011 51.5698C5.77015 54.1503 9.69661 55.3655 12.9185 55.8885C14.4391 56.135 15.9921 56.214 17.5048 56.0438C17.2749 56.3614 17.1011 56.7352 16.8958 57.1274C16.1676 58.5199 15.5481 59.9641 15.0454 61.4531C14.0591 64.3749 13.0562 67.3572 12.4991 70.3949C12.4377 70.7309 12.8553 71.0406 13.1571 70.8731C14.1767 70.3062 14.7505 69.4069 15.434 68.49C16.58 66.9519 17.9066 65.555 19.042 64.009C20.8074 61.6058 21.8067 58.9533 22.1226 56.078C22.2095 57.0862 22.363 58.0715 22.7245 59.1025C23.4931 61.2995 24.7277 63.2974 25.6604 65.4234C25.8069 65.7568 26.2605 65.7103 26.4027 65.4067C27.2283 63.644 27.5003 61.3671 27.7881 59.4622C28.1347 57.166 27.8794 54.6785 27.2424 52.4516C30.5432 51.2153 33.4905 48.1479 34.102 44.8848C34.2424 44.1346 34.2336 43.409 34.1248 42.7044C34.1748 42.7 34.2266 42.6886 34.2801 42.664C36.9343 41.4356 36.5588 37.7838 35.7174 35.5359C35.2927 34.4005 34.4188 32.7483 33.2667 31.5892C35.892 29.4317 38.218 26.6801 39.9518 23.7749C41.2609 21.5814 43.0508 18.6017 42.7393 15.9554C42.7034 15.643 42.3191 15.5272 42.0874 15.7044ZM34.2494 13.6127C35.1619 11.334 36.1376 9.08168 37.0905 6.81969C37.645 5.50356 38.1031 4.12601 38.633 2.78707C38.4119 4.57525 38.0653 6.36519 37.8047 8.12617C37.4143 10.7584 36.7667 13.3065 35.8779 15.8132C34.2468 20.4153 32.4156 24.9472 30.4458 29.415C30.3221 28.914 30.1229 28.4428 29.8737 27.9953C30.7073 23.0388 32.3858 18.2691 34.2494 13.6127ZM11.8752 28.341C12.6763 27.2741 13.6432 26.3493 14.7865 25.6544C16.8923 24.3742 19.3868 23.8662 21.8234 24.2251C24.2495 24.5822 26.737 25.7123 28.326 27.6321C29.414 28.9465 29.8071 30.5223 29.3578 32.1745C29.278 32.4675 28.3444 34.912 27.8539 34.819C27.6863 34.7866 27.5653 34.8532 27.4863 34.9577C26.8668 33.6757 26.0289 32.5219 24.9584 31.62C21.8111 28.9666 15.6297 28.5569 12.5596 31.5647C12.5061 31.6173 12.4692 31.6744 12.4447 31.7314C11.9305 31.4796 11.4032 31.2585 10.8416 31.1356C10.6144 31.0865 10.3819 31.0584 10.1502 31.0251C10.4056 30.1204 11.3339 29.0614 11.8752 28.341ZM20.7574 50.2291C17.1722 51.2303 12.5131 50.2669 10.8329 46.6282C11.5611 46.7019 12.3087 46.6238 13.0369 46.4361C13.8038 46.2386 14.6461 46.0289 15.4525 45.742C17.9777 46.1351 20.6924 45.5104 22.4218 43.5353C23.9801 41.7559 24.3539 39.2035 23.2913 37.0784C22.0621 34.6207 18.9586 33.0107 16.2711 32.9343C15.9465 32.9256 15.5788 32.9668 15.1954 33.0501C14.5382 32.8325 13.9144 32.4991 13.287 32.1631C16.5607 29.8291 21.8155 29.8949 24.7575 32.7597C27.2687 35.2042 28.1654 39.3061 27.6346 42.6851C27.0493 46.4167 24.3635 49.2219 20.7574 50.2291ZM7.54166 41.2426C7.67327 40.0283 8.33134 39.0087 9.32458 38.3147C11.1391 37.0468 13.0843 37.4214 14.5698 38.863C13.4151 39.3755 12.5149 40.5898 13.0176 41.8594C13.5107 43.1036 15.062 44.0986 16.4308 44.3566C14.7891 45.3621 12.3113 45.8649 11.004 45.7289C8.79988 45.499 7.30826 43.3984 7.54166 41.2426ZM18.154 34.304C20.2397 34.9936 22.3025 36.3922 22.8175 38.6525C23.2641 40.6144 22.3578 42.5772 20.7802 43.7547C19.7913 44.4926 18.6489 44.8628 17.4328 44.9708C17.3091 44.9813 17.1854 44.9901 17.0625 44.9971C17.2775 44.8664 17.4855 44.7286 17.6759 44.5724C19.9931 42.686 18.4199 38.2453 15.434 38.6261C14.561 37.4776 13.3607 36.8423 12.1218 36.687C13.2344 34.2478 15.6429 33.4739 18.154 34.304ZM16.9213 44.0205C15.8017 43.6678 14.282 42.9685 13.8143 41.8507C13.1703 40.3108 14.9251 39.1131 16.3246 39.586C17.403 39.951 18.1883 41.2251 18.0338 42.378C17.9487 43.0071 17.5241 43.5555 16.9213 44.0205ZM2.31488 35.385C3.82228 33.1396 6.3317 31.8007 9.03766 31.8446C10.3038 31.8647 11.548 32.1613 12.7219 32.6263C13.2466 32.8343 13.7362 33.1151 14.2408 33.3388C12.7325 33.9241 11.3032 35.1103 11.4137 36.6511C9.73521 36.6888 8.08039 37.5952 7.15208 39.3369C6.1878 41.1461 6.48437 43.4476 7.76453 44.9909C5.67802 44.9313 3.54765 44.5154 2.1157 42.8395C0.323131 40.7416 0.879419 37.5224 2.31488 35.385ZM11.4348 54.4443C9.20262 53.8941 6.72917 53.0202 4.96819 51.5031C3.2423 50.0159 2.06042 46.9379 2.62285 44.6014C4.30048 45.7578 6.53965 46.2465 8.46734 45.7332C8.48137 45.7297 8.49279 45.7201 8.50595 45.7148C8.63581 45.8157 8.7718 45.9105 8.91394 45.9973C9.29825 46.2334 9.70275 46.3922 10.1178 46.4992C10.0923 46.5712 10.0844 46.6519 10.1143 46.7396C11.5234 50.8477 16.5703 52.2604 20.4617 51.3478C21.4172 51.1241 22.3209 50.7872 23.1597 50.3555C23.8283 51.4031 22.4736 52.9298 21.7585 53.4019C20.8749 53.9854 19.8448 54.4021 18.8253 54.6759C16.4633 55.3103 13.7827 55.0234 11.4348 54.4443ZM18.4576 63.1816C17.603 64.4021 16.6001 65.5147 15.6639 66.6711C15.0383 67.4441 14.4417 68.4909 13.6968 69.2709C14.2004 67.0387 14.9181 64.8592 15.549 62.6604C15.8964 61.4496 16.2843 60.2624 16.7581 59.0946C17.1117 58.2242 17.5495 56.6475 18.312 55.9183C19.5167 55.7051 20.6828 55.3147 21.7787 54.7005C20.9416 57.6846 20.2914 60.5625 18.4576 63.1816ZM26.9783 59.3745C26.7563 60.8924 26.5404 62.7148 26.007 64.2398C25.2427 62.592 24.3407 61.0109 23.6388 59.335C22.9395 57.6661 22.8658 55.9938 22.4157 54.3161C22.8518 53.9871 23.3115 53.5063 23.6792 52.9614C23.7125 52.9842 23.7441 53.0105 23.788 53.0132C24.6821 53.0728 25.5998 52.9509 26.5027 52.692C26.9221 54.8996 27.3073 57.1265 26.9783 59.3745ZM32.8552 45.5683C32.1822 47.5934 30.6389 49.1797 28.9419 50.4046C28.054 51.0451 27.08 51.6541 26.0341 52.0068C25.3691 52.2314 24.6654 52.2446 23.9994 52.4183C24.4434 51.5505 24.5803 50.6038 24.017 49.8685C26.336 48.3988 28.011 46.1035 28.5611 43.2273C28.9884 40.9952 28.8103 38.4779 28.0145 36.2203C31.4434 37.3556 33.9458 42.2876 32.8552 45.5683ZM33.9327 41.8164C33.6291 40.7609 33.1009 39.7607 32.449 38.8209C31.5698 37.5531 30.3265 36.036 28.8024 35.4016C29.8185 34.4909 30.4686 31.9928 30.5836 30.9435C30.5915 30.9382 30.6002 30.9356 30.6073 30.9294C34.1424 32.8422 37.2599 38.5165 33.9327 41.8164ZM38.6093 24.2795C36.908 26.7906 34.7908 28.9307 32.592 30.9996C32.1085 30.6364 31.5891 30.3784 31.0416 30.2784C31.0697 30.1415 31.1039 30.0037 31.1416 29.866C31.54 28.9912 31.9374 28.1155 32.3191 27.2329C33.4896 25.2876 35.1777 23.4503 36.5404 22.0526C38.2373 20.3118 40.0395 18.3937 41.9514 16.8424C41.8075 19.3387 39.8632 22.429 38.6093 24.2795Z" fill="black"/>
<path d="M32.285 55.5713C32.6093 54.5626 31.0423 54.057 30.7175 55.0674C30.3932 56.0761 31.9602 56.5817 32.285 55.5713Z" fill="black"/>
<path d="M37.8303 52.4463C37.9623 52.0357 37.6572 51.6677 37.2526 51.6181C37.201 51.6117 37.1494 51.6053 37.0979 51.5989C36.5154 51.5272 36.2253 52.4267 36.7413 52.7081C36.7869 52.733 36.8325 52.7578 36.8782 52.7827C37.2362 52.9773 37.6975 52.8593 37.8303 52.4463Z" fill="black"/>
<path d="M37.1043 58.644C37.3214 57.9687 36.2721 57.6296 36.0545 58.3065C35.8374 58.9818 36.887 59.3202 37.1043 58.644Z" fill="black"/>
</svg>
