<svg width="222" height="178" viewBox="0 0 222 178" fill="none" xmlns="http://www.w3.org/2000/svg">
<rect x="19.5" y="0.5" width="177" height="177" rx="88.5" stroke="#D7B584"/>
<path d="M61.856 104.016C59.04 104.016 56.416 103.344 53.984 102C51.552 100.656 49.6 98.736 48.128 96.24C46.72 93.744 46.016 90.768 46.016 87.312C46.016 84.24 46.688 80.848 48.032 77.136C49.376 73.488 51.392 70.192 54.08 67.248C56.768 64.304 59.744 61.968 63.008 60.24C66.272 58.448 69.44 57.552 72.512 57.552C75.136 57.552 77.408 58.448 79.328 60.24C81.312 61.968 82.304 64.56 82.304 68.016C82.304 69.68 82.016 71.536 81.44 73.584C80.416 77.104 78.976 79.888 77.12 81.936C75.264 83.984 73.344 85.456 71.36 86.352C69.376 87.184 67.584 87.6 65.984 87.6C63.744 87.6 62.4 87.056 61.952 85.968C61.888 85.84 61.856 85.68 61.856 85.488C61.856 85.104 62.016 84.912 62.336 84.912C62.656 84.912 62.816 85.104 62.816 85.488C62.944 86.384 63.936 86.832 65.792 86.832C67.072 86.832 68.544 86.448 70.208 85.68C71.936 84.912 73.6 83.6 75.2 81.744C76.864 79.824 78.176 77.168 79.136 73.776C79.776 71.6 80.096 69.584 80.096 67.728C80.096 64.72 79.328 62.48 77.792 61.008C76.256 59.472 74.4 58.704 72.224 58.704C69.088 58.704 66.176 59.632 63.488 61.488C60.8 63.344 58.432 65.712 56.384 68.592C54.4 71.472 52.832 74.512 51.68 77.712C50.976 79.696 50.464 81.584 50.144 83.376C49.824 85.168 49.664 86.864 49.664 88.464C49.664 92.816 50.752 96.272 52.928 98.832C55.168 101.456 58.208 102.768 62.048 102.768C65.888 102.768 69.6 101.808 73.184 99.888C76.768 97.968 80.192 95.344 83.456 92.016C86.784 88.752 89.92 85.072 92.864 80.976C95.808 76.88 98.528 72.624 101.024 68.208C101.984 66.544 102.912 64.976 103.808 63.504C104.768 61.968 105.696 60.528 106.592 59.184C102.88 59.12 99.392 59.728 96.128 61.008C92.928 62.288 90.496 64.816 88.832 68.592C88.704 68.912 88.448 69.232 88.064 69.552C87.68 69.872 87.36 70.032 87.104 70.032C86.976 70.032 86.912 69.936 86.912 69.744C86.912 69.296 87.168 68.656 87.68 67.824C90.112 63.536 93.088 60.72 96.608 59.376C100.192 57.968 103.872 57.328 107.648 57.456C111.616 51.568 115.328 46.768 118.784 43.056C122.304 39.344 125.504 36.464 128.384 34.416C131.264 32.368 133.728 30.96 135.776 30.192C137.824 29.36 139.36 28.944 140.384 28.944C140.512 28.944 140.288 29.616 139.712 30.96C139.136 32.24 138.368 34 137.408 36.24C136.448 38.416 135.328 40.88 134.048 43.632C132.768 46.32 131.456 49.104 130.112 51.984C128.832 54.8 127.584 57.488 126.368 60.048C126.688 60.112 127.008 60.144 127.328 60.144C127.712 60.144 128.064 60.144 128.384 60.144C129.28 60.144 130.08 60.08 130.784 59.952C131.488 59.824 132.096 59.6 132.608 59.28C133.312 58.896 133.792 58.704 134.048 58.704C134.304 58.704 134.432 58.8 134.432 58.992C134.432 59.248 134.112 59.6 133.472 60.048C132.832 60.496 132.064 60.816 131.168 61.008C130.272 61.136 129.28 61.2 128.192 61.2C127.808 61.2 127.424 61.2 127.04 61.2C126.656 61.2 126.24 61.168 125.792 61.104C124.256 64.368 122.688 67.632 121.088 70.896C119.488 74.096 118.08 77.392 116.864 80.784C115.968 83.472 115.52 85.488 115.52 86.832C115.52 88.496 116.128 89.328 117.344 89.328C118.816 89.328 121.088 88.08 124.16 85.584C126.4 83.728 128.704 81.456 131.072 78.768C133.44 76.08 135.424 73.392 137.024 70.704C137.024 70.64 137.024 70.608 137.024 70.608C137.088 70.608 137.12 70.608 137.12 70.608C137.312 70.608 137.504 70.736 137.696 70.992C137.952 71.184 138.016 71.344 137.888 71.472C136.416 74.032 134.528 76.688 132.224 79.44C129.92 82.128 127.584 84.432 125.216 86.352C123.616 87.632 122.112 88.592 120.704 89.232C119.36 89.872 118.144 90.192 117.056 90.192C115.84 90.192 114.848 89.744 114.08 88.848C113.312 87.888 112.928 86.48 112.928 84.624C112.928 82.896 113.248 80.944 113.888 78.768C114.784 75.696 115.904 72.656 117.248 69.648C118.592 66.576 119.968 63.6 121.376 60.72C119.264 60.4 117.056 60.08 114.752 59.76C112.448 59.44 110.176 59.248 107.936 59.184C106.912 60.656 105.888 62.224 104.864 63.888C103.904 65.552 102.912 67.28 101.888 69.072C98.048 75.92 93.952 82 89.6 87.312C85.248 92.56 80.736 96.656 76.064 99.6C71.456 102.544 66.72 104.016 61.856 104.016ZM122.048 59.376C125.056 53.488 127.936 48.176 130.688 43.44C133.44 38.704 135.424 34.992 136.64 32.304C136.96 31.728 136.448 31.632 135.104 32.016C133.76 32.4 131.776 33.488 129.152 35.28C126.592 37.072 123.584 39.792 120.128 43.44C116.672 47.024 112.96 51.728 108.992 57.552C111.296 57.616 113.536 57.872 115.712 58.32C117.952 58.704 120.064 59.056 122.048 59.376Z" fill="url(#paint0_linear_12_20)"/>
<path d="M133.328 146.224C132.88 146.224 132.432 146.224 131.984 146.224C131.536 146.224 131.088 146.192 130.64 146.128C126.224 145.68 122.512 144.528 119.504 142.672C116.56 140.88 114.352 138.64 112.88 135.952C111.408 133.264 110.672 130.512 110.672 127.696C110.672 123.664 111.664 120.08 113.648 116.944C115.632 113.808 118.256 111.184 121.52 109.072C124.784 106.96 128.336 105.52 132.176 104.752C131.536 103.984 130.992 103.088 130.544 102.064C130.16 101.04 129.968 99.888 129.968 98.608C129.968 97.264 130.192 95.888 130.64 94.48C131.28 92.496 132.368 90.608 133.904 88.816C135.504 87.024 137.552 85.552 140.048 84.4C142.544 83.248 145.488 82.672 148.88 82.672C151.632 82.672 153.68 83.376 155.024 84.784C156.368 86.192 157.04 87.824 157.04 89.68C157.04 90.512 156.912 91.28 156.656 91.984C156.08 93.904 155.056 95.344 153.584 96.304C152.112 97.264 150.544 97.744 148.88 97.744C147.984 97.744 147.216 97.488 146.576 96.976C146 96.464 145.712 95.856 145.712 95.152C145.712 94.96 145.776 94.672 145.904 94.288C146.224 93.392 146.672 92.976 147.248 93.04C147.824 93.104 147.984 93.296 147.728 93.616C147.28 94 147.056 94.448 147.056 94.96C147.056 95.408 147.216 95.824 147.536 96.208C147.92 96.592 148.432 96.784 149.072 96.784C149.968 96.784 150.992 96.336 152.144 95.44C153.36 94.48 154.192 93.296 154.64 91.888C154.768 91.376 154.864 90.896 154.928 90.448C155.056 90 155.12 89.552 155.12 89.104C155.12 87.248 154.48 85.904 153.2 85.072C151.984 84.24 150.608 83.824 149.072 83.824C147.216 83.824 145.328 84.368 143.408 85.456C141.488 86.48 139.76 87.824 138.224 89.488C136.752 91.152 135.696 92.912 135.056 94.768C134.736 95.6 134.512 96.4 134.384 97.168C134.256 97.936 134.192 98.672 134.192 99.376C134.192 100.336 134.288 101.2 134.48 101.968C134.736 102.672 134.992 103.312 135.248 103.888C137.488 103.376 139.568 103.12 141.488 103.12C143.344 103.12 144.72 103.408 145.616 103.984C146.512 104.56 146.96 105.2 146.96 105.904C146.96 106.608 146.512 107.28 145.616 107.92C144.784 108.56 143.568 108.88 141.968 108.88C140.88 108.88 139.472 108.688 137.744 108.304C136.08 107.856 134.576 107.056 133.232 105.904C130.352 106.608 127.568 107.888 124.88 109.744C122.256 111.6 120.08 114 118.352 116.944C116.624 119.888 115.76 123.376 115.76 127.408C115.76 129.84 116.304 132.304 117.392 134.8C118.48 137.296 120.144 139.472 122.384 141.328C124.688 143.12 127.6 144.24 131.12 144.688C131.632 144.752 132.144 144.784 132.656 144.784C133.168 144.848 133.648 144.88 134.096 144.88C137.424 144.88 140.528 144.24 143.408 142.96C146.352 141.744 148.944 140.08 151.184 137.968C153.424 135.856 155.184 133.456 156.464 130.768C157.744 128.08 158.384 125.296 158.384 122.416C158.384 119.536 157.584 117.424 155.984 116.08C154.448 114.672 152.944 113.968 151.472 113.968C148.72 113.968 146.768 114.832 145.616 116.56C144.464 118.224 143.888 120.048 143.888 122.032V122.128C143.888 122.768 143.696 123.088 143.312 123.088C143.056 123.088 142.864 122.832 142.736 122.32C142.672 122 142.64 121.712 142.64 121.456C142.64 121.2 142.64 120.944 142.64 120.688C142.64 118.256 143.504 116.272 145.232 114.736C147.024 113.2 149.36 112.432 152.24 112.432C154.864 112.432 157.136 113.328 159.056 115.12C160.976 116.848 161.936 119.28 161.936 122.416C161.936 125.616 161.136 128.656 159.536 131.536C158 134.416 155.888 136.976 153.2 139.216C150.576 141.392 147.536 143.088 144.08 144.304C140.688 145.584 137.104 146.224 133.328 146.224ZM141.008 107.536C142.16 107.536 143.056 107.344 143.696 106.96C144.4 106.512 144.752 106.064 144.752 105.616C144.752 105.232 144.496 104.912 143.984 104.656C143.472 104.336 142.576 104.176 141.296 104.176C140.464 104.176 139.568 104.24 138.608 104.368C137.712 104.432 136.784 104.624 135.824 104.944C136.592 105.904 137.424 106.544 138.32 106.864C139.216 107.184 139.792 107.376 140.048 107.44C140.24 107.44 140.4 107.472 140.528 107.536C140.72 107.536 140.88 107.536 141.008 107.536Z" fill="url(#paint1_linear_12_20)"/>
<path d="M27.5 126C30.3 113.6 37.5 105.167 41.5 105C40 110.333 36.3 126 27.5 126Z" fill="url(#paint2_linear_12_20)"/>
<path d="M24 117C19.5 120 7.8 116.7 1 103.5C6.16667 102 18.8 107.4 24 117Z" fill="url(#paint3_linear_12_20)"/>
<path d="M20.5 103.5C10.1 84.3 24.1666 69.5 32.9999 65.5C31.4999 75.1667 27.7 97.9 20.5 103.5Z" fill="url(#paint4_linear_12_20)"/>
<path d="M10.5 91.5C5.7 92.3 1 84.5 1 81C3.5 82.6667 11.7 87.9 10.5 91.5Z" fill="url(#paint5_linear_12_20)"/>
<path d="M12.5 83C2.1 75.8 5 59.3333 8.5 55C11 59.1667 16.5 75.4 12.5 83Z" fill="url(#paint6_linear_12_20)"/>
<path d="M27.5 126C30.3 113.6 37.5 105.167 41.5 105C40 110.333 36.3 126 27.5 126Z" stroke="#D7B584"/>
<path d="M24 117C19.5 120 7.8 116.7 1 103.5C6.16667 102 18.8 107.4 24 117Z" stroke="#D7B584"/>
<path d="M20.5 103.5C10.1 84.3 24.1666 69.5 32.9999 65.5C31.4999 75.1667 27.7 97.9 20.5 103.5Z" stroke="#D7B584"/>
<path d="M10.5 91.5C5.7 92.3 1 84.5 1 81C3.5 82.6667 11.7 87.9 10.5 91.5Z" stroke="#D7B584"/>
<path d="M12.5 83C2.1 75.8 5 59.3333 8.5 55C11 59.1667 16.5 75.4 12.5 83Z" stroke="#D7B584"/>
<path d="M177.881 35.0312C178.253 47.7379 173.376 57.6969 169.543 58.8531C169.67 53.3143 169.358 37.2196 177.881 35.0312Z" fill="url(#paint7_linear_12_20)"/>
<path d="M183.509 42.878C187.122 38.8532 199.275 39.1398 209.144 50.234C204.513 52.9718 190.933 50.8832 183.509 42.878Z" fill="url(#paint8_linear_12_20)"/>
<path d="M190.257 55.0835C205.105 71.0939 195.161 88.9272 187.6 94.9983C186.649 85.2622 184.676 62.2981 190.257 55.0835Z" fill="url(#paint9_linear_12_20)"/>
<path d="M202.927 64.2196C207.377 62.251 213.869 68.6371 214.74 72.0272C211.904 71.0346 202.66 68.0049 202.927 64.2196Z" fill="url(#paint10_linear_12_20)"/>
<path d="M203.104 72.9499C214.967 77.3374 216.254 94.0079 213.941 99.0755C210.484 95.6615 201.119 81.3059 203.104 72.9499Z" fill="url(#paint11_linear_12_20)"/>
<path d="M177.881 35.0312C178.253 47.7379 173.376 57.6969 169.543 58.8531C169.67 53.3143 169.358 37.2196 177.881 35.0312Z" stroke="#D7B584"/>
<path d="M183.509 42.878C187.122 38.8532 199.275 39.1398 209.144 50.234C204.513 52.9718 190.933 50.8832 183.509 42.878Z" stroke="#D7B584"/>
<path d="M190.257 55.0835C205.105 71.0939 195.161 88.9272 187.6 94.9983C186.649 85.2622 184.676 62.2981 190.257 55.0835Z" stroke="#D7B584"/>
<path d="M202.927 64.2196C207.377 62.251 213.869 68.6371 214.74 72.0272C211.904 71.0346 202.66 68.0049 202.927 64.2196Z" stroke="#D7B584"/>
<path d="M203.104 72.9499C214.967 77.3374 216.254 94.0079 213.941 99.0755C210.484 95.6615 201.119 81.3059 203.104 72.9499Z" stroke="#D7B584"/>
<defs>
<linearGradient id="paint0_linear_12_20" x1="87.5" y1="6" x2="87.5" y2="121" gradientUnits="userSpaceOnUse">
<stop stop-color="#D7B584"/>
<stop offset="1" stop-color="#715F45"/>
</linearGradient>
<linearGradient id="paint1_linear_12_20" x1="136.5" y1="58" x2="136.5" y2="173" gradientUnits="userSpaceOnUse">
<stop stop-color="#D7B584"/>
<stop offset="1" stop-color="#715F45"/>
</linearGradient>
<linearGradient id="paint2_linear_12_20" x1="21.25" y1="55" x2="21.25" y2="126" gradientUnits="userSpaceOnUse">
<stop stop-color="#D7B584"/>
<stop offset="1" stop-color="#715F45"/>
</linearGradient>
<linearGradient id="paint3_linear_12_20" x1="21.25" y1="55" x2="21.25" y2="126" gradientUnits="userSpaceOnUse">
<stop stop-color="#D7B584"/>
<stop offset="1" stop-color="#715F45"/>
</linearGradient>
<linearGradient id="paint4_linear_12_20" x1="21.25" y1="55" x2="21.25" y2="126" gradientUnits="userSpaceOnUse">
<stop stop-color="#D7B584"/>
<stop offset="1" stop-color="#715F45"/>
</linearGradient>
<linearGradient id="paint5_linear_12_20" x1="21.25" y1="55" x2="21.25" y2="126" gradientUnits="userSpaceOnUse">
<stop stop-color="#D7B584"/>
<stop offset="1" stop-color="#715F45"/>
</linearGradient>
<linearGradient id="paint6_linear_12_20" x1="21.25" y1="55" x2="21.25" y2="126" gradientUnits="userSpaceOnUse">
<stop stop-color="#D7B584"/>
<stop offset="1" stop-color="#715F45"/>
</linearGradient>
<linearGradient id="paint7_linear_12_20" x1="201.592" y1="102.246" x2="183.935" y2="33.4769" gradientUnits="userSpaceOnUse">
<stop stop-color="#D7B584"/>
<stop offset="1" stop-color="#715F45"/>
</linearGradient>
<linearGradient id="paint8_linear_12_20" x1="201.592" y1="102.246" x2="183.935" y2="33.4769" gradientUnits="userSpaceOnUse">
<stop stop-color="#D7B584"/>
<stop offset="1" stop-color="#715F45"/>
</linearGradient>
<linearGradient id="paint9_linear_12_20" x1="201.592" y1="102.246" x2="183.935" y2="33.4769" gradientUnits="userSpaceOnUse">
<stop stop-color="#D7B584"/>
<stop offset="1" stop-color="#715F45"/>
</linearGradient>
<linearGradient id="paint10_linear_12_20" x1="201.592" y1="102.246" x2="183.935" y2="33.4769" gradientUnits="userSpaceOnUse">
<stop stop-color="#D7B584"/>
<stop offset="1" stop-color="#715F45"/>
</linearGradient>
<linearGradient id="paint11_linear_12_20" x1="201.592" y1="102.246" x2="183.935" y2="33.4769" gradientUnits="userSpaceOnUse">
<stop stop-color="#D7B584"/>
<stop offset="1" stop-color="#715F45"/>
</linearGradient>
</defs>
</svg>
