<svg width="580" height="557" viewBox="0 0 580 557" fill="none" xmlns="http://www.w3.org/2000/svg">
<path d="M292.749 275.491V13.24L312.585 275.491H292.749ZM292.749 276.491H312.586L292.749 543.52V276.491ZM291.749 276.491V543.52L271.913 276.491H291.749ZM271.914 275.491L291.749 13.24V275.491H271.914Z" fill="black" stroke="black"/>
<path d="M318.596 258.263L302.47 275.492H292.749V266.184L303.151 257.183L318.596 258.263ZM304.222 256.256L389.762 182.231L319.476 257.322L304.222 256.256ZM319.881 258.353L564.963 275.492L303.84 275.492L319.881 258.353ZM303.928 276.492L564.963 276.492L321.626 293.508L303.928 276.492ZM302.486 276.492L320.281 293.602L304.363 294.715L292.749 285.781V276.492H302.486ZM291.749 266.168V275.492H282.046L267.589 258.114L282.321 257.103L291.749 266.168ZM266.358 258.199L280.745 275.492L14.5771 275.492L266.358 258.199ZM266.8 257.166L204.45 182.226L281.348 256.167L266.8 257.166ZM283.668 257.01L291.749 256.455V264.781L283.668 257.01ZM301.737 257.084L292.749 264.862V256.456L301.737 257.084ZM280.126 295.732L204.454 360.409L265.192 294.706L280.126 295.732ZM264.783 293.676L14.5771 276.492L280.669 276.492L264.783 293.676ZM282.031 276.492H291.749V285.797L281.211 294.804L266.063 293.764L282.031 276.492ZM282.636 294.902L291.749 287.113V295.528L282.636 294.902ZM302.86 294.82L292.749 295.527V287.043L302.86 294.82ZM321.252 294.537L389.737 360.387L305.558 295.634L321.252 294.537Z" fill="black" stroke="black"/>
</svg>
